<?xml version="1.0" standalone="no"?>
<!DOCTYPE svg PUBLIC "-//W3C//DTD SVG 20010904//EN"
 "http://www.w3.org/TR/2001/REC-SVG-20010904/DTD/svg10.dtd">
<svg version="1.0" xmlns="http://www.w3.org/2000/svg"
 width="500.000000pt" height="500.000000pt" viewBox="0 0 500.000000 500.000000"
 preserveAspectRatio="xMidYMid meet">

<g transform="translate(0.000000,500.000000) scale(0.100000,-0.100000)"
fill="#000000" stroke="none">
<path d="M2493 4738 c-6 -7 -81 -245 -168 -528 -87 -283 -161 -518 -164 -521
-3 -4 -62 62 -131 147 -138 169 -166 188 -156 107 14 -113 37 -384 34 -398 -2
-11 -126 51 -447 221 -296 157 -447 232 -454 225 -6 -6 69 -158 226 -453 158
-298 231 -444 222 -446 -8 -2 -109 6 -226 18 -146 14 -216 17 -223 10 -12 -12
-26 1 161 -153 84 -69 150 -128 145 -130 -4 -2 -239 -75 -522 -162 -283 -86
-521 -162 -528 -168 -7 -5 -9 -14 -5 -18 4 -4 244 -80 533 -169 288 -89 525
-162 527 -163 1 -2 -70 -62 -157 -135 -88 -72 -160 -136 -160 -142 0 -14 47
-12 269 10 107 11 196 18 197 17 2 -2 -102 -202 -231 -445 -129 -242 -235
-446 -235 -452 0 -5 6 -10 14 -10 8 0 211 104 451 231 240 127 439 229 442
225 3 -3 -4 -103 -15 -223 -11 -119 -18 -221 -16 -225 3 -4 9 -8 14 -8 5 0 66
69 135 152 69 84 129 154 133 155 4 2 78 -232 166 -520 87 -287 163 -526 167
-532 6 -5 13 -5 19 1 6 6 80 238 165 515 85 277 158 513 163 524 7 16 27 -3
137 -135 70 -85 134 -156 141 -158 18 -4 18 11 -6 257 -11 113 -19 205 -17
207 1 1 200 -103 442 -232 242 -128 446 -234 453 -234 6 0 12 6 12 14 0 7
-104 210 -231 450 -127 240 -230 438 -228 440 2 2 87 -5 189 -15 231 -23 273
-24 268 -5 -2 8 -72 71 -157 141 -106 89 -149 130 -140 135 8 4 247 78 532
165 400 123 517 162 515 174 -2 10 -162 63 -528 176 -289 88 -523 165 -521
170 3 6 71 65 153 133 81 67 148 127 148 132 0 5 -4 11 -9 14 -4 3 -106 -4
-225 -16 -119 -11 -219 -18 -222 -15 -3 2 99 200 225 439 127 239 231 442 231
452 0 13 -5 16 -17 12 -10 -4 -212 -111 -451 -237 -239 -127 -436 -229 -438
-227 -2 3 5 94 16 204 24 240 24 254 6 254 -8 0 -72 -70 -142 -155 -70 -85
-129 -154 -130 -152 -1 1 -75 238 -163 527 -89 289 -165 528 -170 533 -4 4
-13 2 -18 -5z m-13 -1175 l0 -1018 -241 241 -241 241 239 776 c131 427 239
777 241 777 1 0 2 -458 2 -1017z m985 -83 c-231 -231 -423 -420 -426 -420 -9
0 -109 334 -101 342 4 3 192 104 417 223 226 120 433 230 460 246 28 16 54 29
60 29 5 0 -179 -189 -410 -420z m-1533 -451 c-9 -8 -307 -99 -324 -99 -10 0
-492 888 -507 934 -2 6 186 -178 418 -409 231 -231 417 -422 413 -426z m1042
655 c-36 -87 -69 -163 -73 -167 -4 -4 -16 21 -25 57 l-18 65 88 106 c48 58 89
104 91 102 2 -2 -26 -76 -63 -163z m-965 -43 c45 -107 79 -196 77 -198 -9 -9
-136 63 -136 77 0 8 -7 78 -15 155 -16 155 -17 170 -11 164 3 -2 41 -92 85
-198z m1840 -565 c-5 -6 -396 -166 -404 -166 -3 0 10 32 31 70 30 59 41 70 63
71 14 1 78 7 141 14 131 14 175 17 169 11z m-2546 -100 c85 -35 163 -68 172
-74 18 -9 8 -14 -101 -47 -9 -3 -180 131 -233 181 -11 10 17 0 162 -60z m2517
-216 c415 -127 760 -233 765 -235 6 -2 -451 -4 -1015 -4 l-1025 0 245 239
c152 148 251 238 260 235 8 -2 355 -108 770 -235z m-1605 -520 c-132 -132
-244 -240 -249 -240 -12 0 -1549 471 -1555 476 -2 2 457 4 1020 4 l1024 0
-240 -240z m785 -278 c0 -12 -445 -1474 -470 -1542 -5 -15 -9 388 -9 1005 l-1
1030 240 -240 c132 -132 240 -246 240 -253z m750 92 c132 -107 134 -109 85
-89 -22 9 -101 41 -175 72 -74 30 -139 58 -144 61 -9 5 85 39 114 41 8 1 62
-38 120 -85z m-2222 -39 c-24 -49 -38 -65 -57 -69 -47 -9 -292 -29 -297 -24
-5 6 354 157 373 157 8 1 1 -23 -19 -64z m2127 -412 c136 -258 250 -472 253
-478 2 -5 -187 181 -422 415 -234 234 -423 426 -419 427 5 2 80 25 168 52 88
28 163 50 166 50 4 1 118 -209 254 -466z m-1631 162 c25 -83 46 -156 46 -162
0 -9 -350 -199 -850 -461 l-105 -55 425 426 c270 272 427 422 431 414 4 -6 28
-80 53 -162z m1021 -276 c5 -5 16 -84 25 -174 9 -90 13 -161 9 -157 -10 13
-159 377 -159 391 0 8 19 2 58 -19 31 -18 61 -36 67 -41z m-916 -65 l20 -66
-91 -109 c-49 -60 -92 -109 -94 -109 -2 0 2 15 9 33 8 17 40 96 73 175 32 78
59 142 61 142 1 0 11 -30 22 -66z"/>
</g>
</svg>
